#!OML:ASF E:\Style4\Style4.ASF
:FULLY-SPECIFIED
:DEGREES
3029
root -0.0999458 17.1361 -2.61815 8.99822 2.93298 3.96297
lowerback 18.8877 3.46261 1.00151
upperback 12.9881 4.66135 0.492226
thorax 3.51751 2.40849 -0.74687
lowerneck -0.628005 -16.0664 -3.42157
upperneck 32.1241 -21.9923 0.814365
head 11.0377 -10.1209 -1.21549
rclavicle -2.54444e-014 1.03368e-014
rhumerus 54.7296 -0.357395 -1531.27
rradius 11.8974
rwrist 1492.8
rhand -28.6592 30.2242
rfingers 7.12502
rthumb -2.02258 0.254013
lclavicle -2.54444e-014 1.03368e-014
lhumerus 72.276 13.1604 32.7866
lradius 120.994
lwrist 43.2118
lhand -8.68652 28.2351
lfingers 7.12502
lthumb 17.2482 57.4897
rfemur -40.1307 -8.82569 16.9853
rtibia 50.0942
rfoot -17.5848 -16.845
rtoes -8.607
lfemur -38.5559 2.62248 -23.93
ltibia 45.2841
lfoot -15.5046 9.04959
ltoes -14.8485
3030
root -0.103436 17.1223 -2.61839 8.7908 2.97751 3.92548
lowerback 18.9997 3.45075 1.0413
upperback 13.1613 4.65191 0.532651
thorax 3.6539 2.40702 -0.723788
lowerneck -0.0630613 -16.0364 -3.5482
upperneck 31.2898 -22.0032 1.30228
head 10.6924 -10.1419 -0.947216
rclavicle -4.77083e-015 -6.36111e-015
rhumerus 54.6408 -2.03632 -1534.04
rradius 11.3369
rwrist 1496.47
rhand -28.2739 30.1727
rfingers 7.12502
rthumb -1.6504 0.199346
lclavicle -4.77083e-015 -6.36111e-015
lhumerus 72.3252 13.1974 32.7436
lradius 120.993
lwrist 43.1123
lhand -8.6642 28.1422
lfingers 7.12502
lthumb 17.2697 57.3949
rfemur -40.0535 -8.88599 17.0206
rtibia 50.3837
rfoot -17.699 -16.8598
rtoes -9.10332
lfemur -38.5303 2.62245 -23.8718
ltibia 45.6424
lfoot -15.6968 9.04397
ltoes -14.926
3031
root -0.106997 17.1046 -2.61944 8.68245 2.9838 4.0363
lowerback 19.0425 3.45872 0.907036
upperback 13.291 4.6437 0.535219
thorax 3.76577 2.39579 -0.642022
lowerneck 1.72693 -15.9249 -3.75688
upperneck 28.8447 -21.9683 2.59557
head 9.64647 -10.1807 -0.225243
rclavicle -4.05521e-014 2.8625e-014
rhumerus 54.5585 -3.75683 -1536.83
rradius 10.8203
rwrist 1500.23
rhand -28.193 30.1324
rfingers 7.12502
rthumb -1.57236 0.158488
lclavicle -4.05521e-014 2.8625e-014
lhumerus 72.3224 13.257 32.6866
lradius 120.947
lwrist 43.0545
lhand -8.5698 27.7828
lfingers 7.12502
lthumb 17.3605 57.0275
rfemur -40.1136 -8.92803 16.8925
rtibia 50.701
rfoot -17.8575 -16.8359
rtoes -9.10381
lfemur -38.6008 2.64349 -23.9917
ltibia 45.9813
lfoot -15.8214 9.00108
ltoes -15.0315
3032
root -0.108115 17.0822 -2.62209 8.6798 2.98387 4.03329
lowerback 18.9992 3.45609 0.907809
upperback 13.3467 4.64019 0.541421
thorax 3.8494 2.39458 -0.629938
lowerneck 0.321735 -15.9949 -3.69618
upperneck 30.8698 -21.9744 1.60699
head 10.52 -10.1408 -0.771763
rclavicle 1.19271e-014 -1.66979e-014
rhumerus 54.4728 -5.35974 -1539.4
rradius 10.3899
rwrist 1503.55
rhand -27.6687 29.5756
rfingers 7.12502
rthumb -1.06593 -0.401433
lclavicle 1.19271e-014 -1.66979e-014
lhumerus 72.2581 13.3001 32.5701
lradius 120.909
lwrist 43.1431
lhand -8.53597 27.7491
lfingers 7.12502
lthumb 17.3931 56.9909
rfemur -40.3189 -8.9658 16.9093
rtibia 51.0283
rfoot -18.0378 -16.7394
rtoes -8.64787
lfemur -38.8144 2.62847 -23.9812
ltibia 46.3201
lfoot -15.9295 8.97618
ltoes -14.8746
3033
root -0.110969 17.0641 -2.62841 8.55127 3.05401 3.98442
lowerback 19.1754 3.42728 0.967162
upperback 13.3868 4.61203 0.573928
thorax 3.80707 2.38342 -0.633616
lowerneck 2.10785 -15.8538 -3.79611
upperneck 28.6619 -21.8753 2.7268
head 9.53047 -10.1461 -0.126517
rclavicle -2.70347e-014 2.22639e-014
rhumerus 54.3133 -6.80336 -1541.61
rradius 10.0763
rwrist 1506.22
rhand -26.798 28.8712
rfingers 7.12502
rthumb -0.225006 -1.10842
lclavicle -2.70347e-014 2.22639e-014
lhumerus 72.1737 13.2345 32.4806
lradius 120.897
lwrist 43.1507
lhand -8.53606 27.9411
lfingers 7.12502
lthumb 17.393 57.1829
rfemur -40.3725 -9.06819 16.9894
rtibia 51.3613
rfoot -18.2163 -16.7032
rtoes -8.63302
lfemur -38.893 2.60574 -23.902
ltibia 46.663
lfoot -16.0796 8.90445
ltoes -14.9522
3034
root -0.115429 17.0479 -2.63226 8.43432 3.08046 4.04934
lowerback 19.3541 3.42685 0.881681
upperback 13.4336 4.60004 0.588626
thorax 3.76105 2.37149 -0.578036
lowerneck 2.03789 -15.8559 -3.95399
upperneck 28.9046 -21.8964 2.76644
head 9.65762 -10.153 -0.11505
rclavicle -4.53229e-014 0
rhumerus 53.937 -6.62971 -1541.56
rradius 9.76803
rwrist 1506.06
rhand -25.5842 27.579
rfingers 7.12502
rthumb 0.947317 -2.39863
lclavicle -4.53229e-014 0
lhumerus 72.1031 13.1955 32.4253
lradius 120.866
lwrist 43.1505
lhand -8.39269 28.1264
lfingers 7.12502
lthumb 17.531 57.356
rfemur -40.4317 -9.13741 16.9327
rtibia 51.6956
rfoot -18.3478 -16.733
rtoes -8.71061
lfemur -38.9685 2.64099 -23.9687
ltibia 47.0201
lfoot -16.2463 8.8433
ltoes -14.7895
3035
root -0.118426 17.0275 -2.63459 8.38779 3.08921 4.02328
lowerback 19.4208 3.4209 0.893794
upperback 13.4699 4.59409 0.601296
thorax 3.76807 2.36908 -0.572941
lowerneck 2.07388 -15.8308 -4.01557
upperneck 28.9412 -21.868 2.80267
head 9.67571 -10.1411 -0.0919227
rclavicle -2.22639e-014 3.57812e-014
rhumerus 53.5807 -6.49229 -1541.52
rradius 9.4967
rwrist 1505.86
rhand -24.1116 26.0783
rfingers 7.12502
rthumb 2.36959 -3.88825
lclavicle -2.22639e-014 3.57812e-014
lhumerus 71.9801 13.2364 32.2575
lradius 120.783
lwrist 43.3274
lhand -8.43611 28.0437
lfingers 7.12502
lthumb 17.4892 57.277
rfemur -40.5847 -9.16805 16.9746
rtibia 52.0295
rfoot -18.4623 -16.7511
rtoes -8.67468
lfemur -39.1522 2.70369 -23.9406
ltibia 47.3977
lfoot -16.4491 8.72327
ltoes -14.3114
3036
root -0.120138 17.0045 -2.63673 8.33451 3.09082 3.93283
lowerback 19.4802 3.40936 0.965603
upperback 13.5024 4.58909 0.639283
thorax 3.77722 2.36977 -0.574033
lowerneck 2.06677 -15.7915 -4.07127
upperneck 28.9921 -21.8131 2.80055
head 9.69948 -10.1181 -0.0833793
rclavicle 3.97569e-015 -2.3059e-014
rhumerus 53.2 -6.35382 -1541.43
rradius 9.23781
rwrist 1505.7
rhand -22.4159 24.6247
rfingers 7.12502
rthumb 4.00719 -5.31736
lclavicle 3.97569e-015 -2.3059e-014
lhumerus 71.7433 13.2889 31.9953
lradius 120.662
lwrist 43.4833
lhand -8.77547 27.792
lfingers 7.12502
lthumb 17.1626 57.054
rfemur -40.7433 -9.21318 17.089
rtibia 52.3731
rfoot -18.6265 -16.6971
rtoes -8.46776
lfemur -39.3533 2.82641 -23.8572
ltibia 47.7983
lfoot -16.5612 8.61998
ltoes -14.2765
3037
root -0.119849 16.9835 -2.63768 8.24897 3.05584 3.92215
lowerback 19.5338 3.40741 0.969895
upperback 13.5585 4.58663 0.671777
thorax 3.81075 2.36776 -0.542399
lowerneck 2.10813 -15.7474 -4.23073
upperneck 29.0406 -21.7581 2.85115
head 9.73333 -10.1009 -0.0414499
rclavicle -2.94201e-014 4.13472e-014
rhumerus 52.8013 -6.25257 -1541.27
rradius 9.07699
rwrist 1505.76
rhand -20.6489 22.9381
rfingers 7.12502
rthumb 5.7133 -6.96484
lclavicle -2.94201e-014 4.13472e-014
lhumerus 71.5796 13.3529 31.8968
lradius 120.609
lwrist 43.5849
lhand -8.85497 27.7668
lfingers 7.12502
lthumb 17.086 57.0355
rfemur -40.8582 -9.3102 17.1074
rtibia 52.7183
rfoot -18.7988 -16.5255
rtoes -8.49731
lfemur -39.4949 2.92484 -23.8623
ltibia 48.2173
lfoot -16.7731 8.57022
ltoes -14.2173
3038
root -0.120701 16.963 -2.6401 8.17869 3.03516 3.87064
lowerback 19.5553 3.41431 1.02756
upperback 13.6333 4.60339 0.683227
thorax 3.88824 2.38046 -0.56254
lowerneck 0.876259 -15.8059 -4.2409
upperneck 30.7341 -21.7848 2.13372
head 10.4998 -10.0718 -0.460784
rclavicle 2.14687e-014 -2.3059e-014
rhumerus 52.4794 -6.21998 -1541.17
rradius 8.93065
rwrist 1505.82
rhand -18.6062 21.0731
rfingers 7.12502
rthumb 7.68524 -8.76724
lclavicle 2.14687e-014 -2.3059e-014
lhumerus 71.5706 13.4196 31.8304
lradius 120.59
lwrist 43.6864
lhand -8.73328 27.9067
lfingers 7.12502
lthumb 17.2032 57.1652
rfemur -41.0066 -9.38072 17.1778
rtibia 53.0704
rfoot -18.9877 -16.4025
rtoes -8.42731
lfemur -39.6636 2.99078 -23.8098
ltibia 48.6236
lfoot -16.9871 8.58807
ltoes -14.6281
3039
root -0.121777 16.9405 -2.64143 8.09765 3.03222 3.81436
lowerback 19.5777 3.4094 1.0768
upperback 13.6937 4.60373 0.713542
thorax 3.94645 2.38328 -0.556297
lowerneck 1.80193 -15.7134 -4.3198
upperneck 29.4531 -21.7126 2.75682
head 9.93708 -10.0693 -0.102218
rclavicle -4.29375e-014 7.95139e-015
rhumerus 51.9473 -6.11119 -1541.08
rradius 9.06238
rwrist 1505.72
rhand -15.847 19.3991
rfingers 7.12502
rthumb 10.3478 -10.3263
lclavicle -4.29375e-014 7.95139e-015
lhumerus 71.5937 13.4769 31.7945
lradius 120.525
lwrist 43.7946
lhand -8.6171 27.9912
lfingers 7.12502
lthumb 17.315 57.2399
rfemur -41.1314 -9.42702 17.246
rtibia 53.4319
rfoot -19.1565 -16.3728
rtoes -8.35011
lfemur -39.8194 3.0778 -23.7545
ltibia 49.0185
lfoot -17.1076 8.50066
ltoes -14.7124
